<?xml version="1.0" encoding="utf-8"?>
<!-- Generator: Adobe Illustrator 19.0.0, SVG Export Plug-In . SVG Version: 6.00 Build 0)  -->
<svg version="1.1" id="Layer_1" xmlns="http://www.w3.org/2000/svg" xmlns:xlink="http://www.w3.org/1999/xlink" x="0px" y="0px"
	 viewBox="0 0 1366 768" style="enable-background:new 0 0 1366 768;" xml:space="preserve">
<style type="text/css">
	.st0{fill:#00FFCE;}
	.st1{fill:#FFFFFF;}
</style>
<path class="st0" d="M-621.3-37"/>
<path class="st1" d="M3,1v4000h1366V1H3z M1106,1713v-20h90v20H1106z M1156,1911v30h-10v-30H1156z M1167,890v30h-50v-30H1167z
	 M1131,613v-30h10v30H1131z M1102,1541v-30h50v30H1102z M1161,1320v-30h10v30H1161z M1121,1092v-20h90v20H1121z M728,1977v-10h30v10
	H728z M747,2138v20h-10v-20H747z M759,1054v10h-40v-10H759z M752,832v-20h10v20H752z M737,1433h10v20h-10V1433z M743,1356v-10h30v10
	H743z M945,626h-30v-20h30V626z M962,866v20h-40v-20H962z M950,981v20h-80v-20H950z M935,1602v20h-80v-20H935z M907,1507v-20h40v20
	H907z M907,2192h40v20h-40V2192z M930,1954v-20h30v20H930z M932,1796v-20h70v20H932z M975,1333h-30v-20h30V1333z M871,1198v30h-90
	v-30H871z M856,1819v30h-90v-30H856z M762.8,2781.4h10v20h-10V2781.4z M766,2554v-30h90v30H766z M855,2327v-20h80v20H855z M930,2639
	h30v20h-30V2639z M880.8,2950.4h80v20h-80V2950.4z M932.8,2855.4v-20h40v20H932.8z M932,2501v-20h70v20H932z M947,1175v-20h70v20
	H947z M987,468h-70v-20h70V468z M892,159h40v20h-40V159z M840,274h80v20h-80V274z M751,491h90v30h-90V491z M743,649h-30v-10h30V649z
	 M722,105h10v20h-10V105z M569,1642v-30h20v30H569z M587,1768v30h-30v-30H587z M580,1495h-60v-20h60V1495z M520,2180h60v20h-60V2180
	z M557,2473h30v30h-30V2473z M569,2347v-30h20v30H569z M572,1177v-30h30v30H572z M584,1021v-30h20v30H584z M595,874h-60v-20h60V874z
	 M542,470v-30h30v30H542z M574,314h-20v-30h20V314z M505,147h60v20h-60V147z M503,1270h20v80h-20V1270z M368,1081V971h30v110H368z
	 M383,1592v110h-30v-110H383z M369,925h-20V815h20V925z M368,374h-30V264h30V374z M243,1320h20v60h-20V1320z M248,1941v60h-20v-60
	H248z M213,613h20v60h-20V613z M213,1186h20v20h-20V1186z M100,86h30v90h-30V86z M160,793v90h-30v-90H160z M115,1414h30v90h-30V1414
	z M115,2119h30v90h-30V2119z M170.8,2852.4h-30v-90h30V2852.4z M183,479h20v20h-20V479z M198,1807h20v20h-20V1807z M218,2532h-20
	v-20h20V2532z M243.8,3175.4h-20v-20h20V3175.4z M248,2706h-20v-60h20V2706z M273.8,3349.4h-20v-60h20V3349.4z M319,108h20v110h-20
	V108z M334,1436h20v110h-20V1436z M334,2141h20v110h-20V2141z M353,2297h30v110h-30V2297z M359.8,2784.4h20v110h-20V2784.4z
	 M408.8,3050.4h-30v-110h30V3050.4z M473,563h20v80h-20V563z M488,1891h20v80h-20V1891z M508,2676h-20v-80h20V2676z M533.8,3319.4
	h-20v-80h20V3319.4z M545.8,2823.4h60v20h-60V2823.4z M612.8,3146.4h-30v-30h30V3146.4z M614.8,2990.4h-20v-30h20V2990.4z M689,347
	h40v10h-40V347z M704,1675h40v10h-40V1675z M704,2380h40v10h-40V2380z M728,2672h30v10h-30V2672z M729.8,3023.4h40v10h-40V3023.4z
	 M783.8,3325.4h-30v-10h30V3325.4z M881.8,3197.4h-90v-30h90V3197.4z M985.8,3302.4h-30v-20h30V3302.4z M1027.8,3144.4h-70v-20h70
	V3144.4z M1087,183h50v30h-50V183z M1091,365h90v20h-90V365z M1102,2216h50v30h-50V2216z M1106,2398h90v20h-90V2398z M1156,2616v30
	h-10v-30H1156z M1127.8,2859.4h50v30h-50V2859.4z M1181.8,3289.4h-10v-30h10V3289.4z M1221.8,3061.4h-90v-20h90V3061.4z"/>
</svg>
